<svg xmlns="http://www.w3.org/2000/svg" xmlns:xlink="http://www.w3.org/1999/xlink" width="287.776" height="119.251" viewBox="0 0 287.776 119.251">
  <defs>
    <linearGradient id="linear-gradient" x1="0.967" y1="1.305" x2="-0.836" y2="-2.09" gradientUnits="objectBoundingBox">
      <stop offset="0" stop-color="#23a54b"/>
      <stop offset="0.19" stop-color="#26a649"/>
      <stop offset="0.38" stop-color="#32ac45"/>
      <stop offset="0.56" stop-color="#46b63f"/>
      <stop offset="0.75" stop-color="#61c436"/>
      <stop offset="0.93" stop-color="#84d62a"/>
      <stop offset="1" stop-color="#95df25"/>
    </linearGradient>
    <linearGradient id="linear-gradient-2" x1="1.316" y1="1.942" x2="-0.515" y2="-1.384" gradientUnits="objectBoundingBox">
      <stop offset="0" stop-color="#23a54b"/>
      <stop offset="0.19" stop-color="#26a649"/>
      <stop offset="0.38" stop-color="#32ac45"/>
      <stop offset="0.56" stop-color="#46b63f"/>
      <stop offset="0.75" stop-color="#61c536"/>
      <stop offset="0.93" stop-color="#85d62a"/>
      <stop offset="1" stop-color="#95df25"/>
    </linearGradient>
    <linearGradient id="linear-gradient-3" x1="1.44" y1="2.172" x2="-0.693" y2="-1.754" xlink:href="#linear-gradient-2"/>
    <linearGradient id="linear-gradient-4" x1="2.234" y1="2.399" x2="-0.614" y2="-0.661" gradientUnits="objectBoundingBox">
      <stop offset="0" stop-color="#23a54b"/>
      <stop offset="0.19" stop-color="#26a749"/>
      <stop offset="0.38" stop-color="#32ad45"/>
      <stop offset="0.56" stop-color="#46b73f"/>
      <stop offset="0.75" stop-color="#62c535"/>
      <stop offset="0.93" stop-color="#86d729"/>
      <stop offset="1" stop-color="#95df25"/>
    </linearGradient>
    <linearGradient id="linear-gradient-5" x1="1.831" y1="3.316" x2="-0.505" y2="-1.739" gradientUnits="objectBoundingBox">
      <stop offset="0" stop-color="#23a54b"/>
      <stop offset="0.19" stop-color="#27a749"/>
      <stop offset="0.37" stop-color="#33ad45"/>
      <stop offset="0.56" stop-color="#47b73e"/>
      <stop offset="0.75" stop-color="#63c535"/>
      <stop offset="0.94" stop-color="#87d829"/>
      <stop offset="1" stop-color="#95df25"/>
    </linearGradient>
    <linearGradient id="linear-gradient-6" x1="3.158" y1="3.06" x2="-0.471" y2="-0.364" gradientUnits="objectBoundingBox">
      <stop offset="0" stop-color="#23a54b"/>
      <stop offset="0.19" stop-color="#26a649"/>
      <stop offset="0.38" stop-color="#32ac45"/>
      <stop offset="0.56" stop-color="#46b63f"/>
      <stop offset="0.75" stop-color="#61c436"/>
      <stop offset="0.93" stop-color="#85d62a"/>
      <stop offset="1" stop-color="#95df25"/>
    </linearGradient>
    <linearGradient id="linear-gradient-7" x1="3.282" y1="3.661" x2="-0.445" y2="-0.634" gradientUnits="objectBoundingBox">
      <stop offset="0" stop-color="#23a54b"/>
      <stop offset="0.19" stop-color="#26a749"/>
      <stop offset="0.38" stop-color="#32ad45"/>
      <stop offset="0.56" stop-color="#46b73f"/>
      <stop offset="0.75" stop-color="#62c535"/>
      <stop offset="0.93" stop-color="#85d72a"/>
      <stop offset="1" stop-color="#95df25"/>
    </linearGradient>
    <radialGradient id="radial-gradient" cx="-0.209" cy="-0.124" r="3.342" gradientTransform="translate(0.207) scale(0.585 1)" gradientUnits="objectBoundingBox">
      <stop offset="0" stop-color="#d3ff00"/>
      <stop offset="0" stop-color="#d0fd00"/>
      <stop offset="0.1" stop-color="#a1e515"/>
      <stop offset="0.2" stop-color="#77d026"/>
      <stop offset="0.3" stop-color="#54bd36"/>
      <stop offset="0.41" stop-color="#37ae42"/>
      <stop offset="0.53" stop-color="#21a34c"/>
      <stop offset="0.66" stop-color="#119b52"/>
      <stop offset="0.8" stop-color="#079656"/>
      <stop offset="1" stop-color="#059558"/>
    </radialGradient>
    <radialGradient id="radial-gradient-2" cx="-0.713" cy="-1.827" r="8.404" gradientTransform="translate(-0.112) scale(1.224 1)" xlink:href="#radial-gradient"/>
  </defs>
  <g id="Group_446" data-name="Group 446" transform="translate(0 0.469)">
    <g id="Group_443" data-name="Group 443" transform="translate(192.971 2.531)">
      <path id="Path_107" data-name="Path 107" d="M425.037,129.14c-10.716-.343-21.089.888-30.708,6.567-9.53,5.748-14.808,17.784-13.425,22.542.082-.019.209-.013.247-.063.476-.615.958-1.225,1.409-1.859,4.809-6.719,11.167-10.932,19.44-12.042,1.117-.152,2.367-.463,3.191.546.793.964.133,2.056-.279,2.969a24.2,24.2,0,0,1-10.24,11.211,42.214,42.214,0,0,1-10.088,3.984,2.48,2.48,0,0,0,2.493,1.2,43.993,43.993,0,0,0,11.953-1.117c16.084-3.4,24.642-17.619,27.8-31.558.343-1.51-.114-2.322-1.8-2.373Z" transform="translate(-332.127 -49.786)" fill="url(#linear-gradient)"/>
      <path id="Path_108" data-name="Path 108" d="M318.235,128.848c-4.574-.774-9.155-.615-14.085-.489,2.208,13.8,7.265,25.423,20.055,32.161,6.459,3.4,17.752,4.739,20.468,2.633-4.543-1.675-9.124-3.166-12.867-6.649a21.335,21.335,0,0,1-6.3-8.775c-.406-1.053-1.142-2.164-.324-3.2.876-1.117,2.278-.812,3.432-.571,7.855,1.624,14.307,5.374,18.52,12.454.489.818.8,2.024,2.227,1.827.121-.254.355-.508.317-.711-1.212-6.421-3.229-12.486-7.817-17.4-6.4-6.852-14.675-9.777-23.634-11.293Z" transform="translate(-304.15 -49.482)" fill="url(#linear-gradient-2)"/>
      <path id="Path_109" data-name="Path 109" d="M382.041,109.077A22.761,22.761,0,0,1,397.49,98.786c1.06-.209,2.392-.533,3.191.514.749.983-.057,2.018-.463,2.944-2.525,5.736-7.3,8.952-12.8,11.363-1.129.495-2.519.47-3.585,1.523a29.305,29.305,0,0,0,16.813-2c10.932-5.26,15.716-14.853,18.2-26.038.311-1.389-.343-1.929-1.688-1.9-2.182.044-4.384-.108-6.554.07-9.206.749-17.632,3.413-24.42,10.367-3.654,4.638-6.1,9.555-6.357,15.6,1.5-.343,1.732-1.383,2.221-2.138Z" transform="translate(-331.81 -33.733)" fill="url(#linear-gradient-3)"/>
      <path id="Path_110" data-name="Path 110" d="M346.965,108.08c.52.152,1.047.171,1.326-.457a1.317,1.317,0,0,0-.2-.469c-.514-.469-1.04-.92-1.58-1.364-4.7-3.9-7.721-8.73-8.292-14.91-.1-1.129-.2-2.43.749-3.191,1.085-.863,2.176.057,3.128.565a19.952,19.952,0,0,1,10.646,14.7c.152.806-.044,1.77.958,2.309.2-.171.463-.292.552-.495a9.316,9.316,0,0,0,.489-1.491A23.783,23.783,0,0,0,354.16,89.6c-3.4-10.088-11.471-15.29-20.7-19-6.471-2.6-6.833-2.2-7.163,5.26-.07,2.5-.152,4.739-.063,7.017.552,13.52,9.257,21.806,20.721,25.207Z" transform="translate(-312.21 -27.877)" fill="url(#linear-gradient-4)"/>
      <path id="Path_111" data-name="Path 111" d="M389.96,67.816c4.987-5.8,10.627-9.65,19.053-8.641-3.286,7.88-9.752,10.291-16.737,12.144a22.749,22.749,0,0,0,11.6.66c11.674-2.138,17.663-10.4,21.61-20.69.546-1.415-.279-1.789-1.554-1.973a49.065,49.065,0,0,0-14.827.108c-12.036,1.9-19.173,11.56-19.142,18.4Z" transform="translate(-335.517 -20.44)" fill="url(#linear-gradient-5)"/>
      <path id="Path_112" data-name="Path 112" d="M360.521,33.071a52.336,52.336,0,0,0-9.2-5.869c-1.7-.844-2.493-.742-3.223,1.275a35.494,35.494,0,0,0-1.941,13.387,20.318,20.318,0,0,0,8.825,16.718c1.96,1.408,4.061,2.855,6.8,2.995-1.808-2.792-4.149-5.126-5.342-8.2a12.023,12.023,0,0,1,.2-10.259c6.624,3.864,9.631,9.466,9.682,17.359,4.695-7.791,3.934-19.3-5.793-27.4Z" transform="translate(-319.497 -12.361)" fill="url(#linear-gradient-6)"/>
      <path id="Path_113" data-name="Path 113" d="M389.329,28.8c.952-.47.837-1.466,1.129-2.246a15.166,15.166,0,0,1,7.068-8.445c.9-.482,2.018-1.129,2.918-.311.838.768.533,1.948.228,2.969a17.372,17.372,0,0,1-5.983,8.616c-.876.736-2.106.933-2.113,2.3.336.1.6.266.818.216,13.736-3.16,18.291-13.3,17.054-25.664-.209-2.056-1.25-2.417-3.033-1.954a35.45,35.45,0,0,0-9.606,4.111c-6.947,4.276-10.253,10.513-9.415,18.748.063.653.019,1.434.933,1.656Z" transform="translate(-334.899 -4.098)" fill="url(#linear-gradient-7)"/>
    </g>
    <g id="Group_445" data-name="Group 445" transform="translate(0 -0.469)">
      <g id="Group_444" data-name="Group 444" transform="translate(11.414)">
        <path id="Path_114" data-name="Path 114" d="M189.3,73.432c-.539-6.345-6.288-12.537-12.4-13.019q-5.491-.428-10.989-.324c-3.293.057-5.412-1.675-5.45-4.34-.044-2.811,2.087-4.809,5.348-4.885,2.709-.063,5.431-.114,8.134.013,2.906.133,4.644-1.136,5.387-4.086-.07-4.137-1.459-6.008-5.038-6.148-4.175-.159-8.375-.412-12.543.368-7.334,1.383-12.359,8.381-11.623,16.318a14.308,14.308,0,0,0,14.11,12.924c3.236.013,6.465-.057,9.7.044a4.93,4.93,0,0,1,4.809,3.432c.685,1.954-.127,3.572-1.669,4.866-1.11.933-2.449.825-3.743.825q-15.474,0-30.949-.07c-.736,0-1.592.273-2.411-.895,3.972-5.539,3.845-12.105,3.693-18.678a4.813,4.813,0,0,0-4.619-5.038c-1.65-.133-3.325-.07-4.98-.07q-13.895-.019-27.8-.019c-1.345,0-2.9.051-2.925-1.776-.051-3.559-.089-19.782,2-22.923a12.485,12.485,0,0,1,4.162-3.984,12.021,12.021,0,0,1,1.9-.888,18.82,18.82,0,0,0,3.724-1.751,24.235,24.235,0,0,0,4.5-3.705c4.27-4.46,6.6-10.278,8.032-16.718.26-1.167-.292-1.631-1.428-1.605-1.846.038-3.705-.089-5.545.063-7.772.634-14.9,2.88-20.639,8.762a23.388,23.388,0,0,0-5.133,10.818.877.877,0,0,0,1.624.571.023.023,0,0,1,.013-.019,19.258,19.258,0,0,1,13.057-8.7c.9-.184,2.018-.45,2.7.431a1.24,1.24,0,0,1,.222,1.1,1.688,1.688,0,0,1-1.339,1.231A20.345,20.345,0,0,0,95.467,30.263c-1.06,4.022-1.015,20.721-.952,24.826a3.48,3.48,0,0,1-1.535,3.363c-6.8,4.416-10.7,10.634-11.357,18.761-.14,1.713-.964,2.214-2.544,2.17-2.709-.07-5.425-.07-8.127,0a2.2,2.2,0,0,1-2.03-.749,2.96,2.96,0,0,1-.412-1.8c.025-2.233.038-5.907.038-10.151v-.019c0-.2-.013-.412-.019-.615-.311-11.344-.565-25.175-.152-32.465v-.025a31.683,31.683,0,0,0-.419-4.581,20.236,20.236,0,0,0-4.365-8.165,19.959,19.959,0,0,0-2.2-2.138,18.974,18.974,0,0,0-2.132-1.567,19.994,19.994,0,0,0-7.042-2.836A1.673,1.673,0,0,1,50.89,13.05a1.24,1.24,0,0,1,.222-1.1c.673-.888,1.8-.615,2.7-.431A20.653,20.653,0,0,1,60.5,14.008a18.25,18.25,0,0,1,3.09,2.284h0a19.16,19.16,0,0,1,2.183,2.392,17.935,17.935,0,0,1,1.091,1.529.023.023,0,0,0,.013.019.878.878,0,0,0,1.624-.571,18.424,18.424,0,0,0-.59-2.551A20.845,20.845,0,0,0,66.676,14a27.84,27.84,0,0,0-3.1-4.873c-.07-.1-.146-.184-.216-.286C57.6,2.956,50.478.71,42.706.076c-1.84-.152-3.7-.025-5.545-.063-1.142-.025-1.688.431-1.428,1.605,1.212,5.45,3.071,10.456,6.205,14.574a21.616,21.616,0,0,0,1.827,2.144,24.118,24.118,0,0,0,4.5,3.7,18.706,18.706,0,0,0,3.731,1.751,11.273,11.273,0,0,1,1.9.895,12.548,12.548,0,0,1,4.162,3.984c.343.527.577,2.284.723,4.892v.025c-.038.787-.07,1.643-.108,2.57v.013c-.279,7.62-.393,19.738-.431,29.864v.381c.025,6.611.057,12.746.07,16.268a9.672,9.672,0,0,0,.051.977c.355,3.858,2.766,5.945,6.954,6,10.488.127,20.969.3,31.463.286,25.7-.032,51.391-.406,77.08-.1,8.749.1,16.274-6.706,15.462-16.394Zm-55.915-5.786c-.533,4.53-3.229,7.62-6.909,9.936a11.446,11.446,0,0,1-7.5,1.789c-8.191,0-15.868,0-23.545-.013-3.337,0-4.086-1.091-2.849-4.435,2.17-5.85,6.4-9.561,12.632-9.84,8.622-.4,17.276-.1,25.918-.133,1.935-.013,2.436,1.085,2.252,2.7Z" transform="translate(-24.452 0.002)" fill="url(#radial-gradient)"/>
        <path id="Path_115" data-name="Path 115" d="M36.478,99.547c-2.068-.044-4.137.019-6.205,0-2.5-.025-3.965-1.193-4-3.141-.038-1.9,1.485-3.172,3.946-3.229,2.068-.051,4.143.063,6.205-.089A3.92,3.92,0,0,0,40.2,89.173,4.057,4.057,0,0,0,36.1,85.4c-2.144-.044-4.283-.025-6.427,0A10.5,10.5,0,0,0,19.842,91.3c-.165.355-.279.546-.355.755-2.7,7.265,1.776,14.789,9.066,15.018,2.582.082,5.164.013,7.747.2a3.186,3.186,0,0,1,3.236,3.045c.1,1.8-1.2,2.95-3.007,3.293a11.556,11.556,0,0,1-1.992.082c-4.137.006-8.273-.019-12.416.025-2.938.025-4.111,1.123-4.13,3.7-.019,2.531,1.25,3.712,4.1,3.718,5.025.019,10.05,0,15.075,0a8.275,8.275,0,0,0,3.248-.584,10.917,10.917,0,0,0,6.6-12.232,10.788,10.788,0,0,0-10.538-8.775Z" transform="translate(-17.99 -31.208)" fill="url(#radial-gradient-2)"/>
      </g>
      <text id="منصة_إدارة_المنح_الخيري_المعاصر" data-name="منصة إدارة المنح الخيري المعاصر" transform="translate(0 112.251)" fill="#636363" font-size="12" font-family="Cairo-SemiBold, Cairo" font-weight="600" letter-spacing="0.029em"><tspan x="0" y="0">منصة إدارة المنح الخيري المعاصر</tspan></text>
    </g>
  </g>
</svg>
