<svg xmlns="http://www.w3.org/2000/svg" xmlns:xlink="http://www.w3.org/1999/xlink" width="1920"
    height="834" viewBox="0 0 1920 834">
    <defs>
        <clipPath id="clip-path">
            <rect id="Rectangle_48" data-name="Rectangle 48" width="1920" height="834"
                transform="translate(0 247)" fill="#fff" stroke="#707070" stroke-width="1" />
        </clipPath>
    </defs>
    <g id="Mask_Group_4" data-name="Mask Group 4" transform="translate(0 -247)"
        clip-path="url(#clip-path)">
        <g id="Group_495" data-name="Group 495" transform="translate(1237.214 132)">
            <path id="Path_107" data-name="Path 107"
                d="M747.809,129.523c-88.7-2.836-174.57,7.352-254.188,54.356-78.882,47.581-122.577,147.208-111.128,186.6.682-.157,1.733-.105,2.048-.525,3.939-5.094,7.93-10.136,11.659-15.388,39.809-55.617,92.432-90.489,160.916-99.679,9.243-1.261,19.589-3.834,26.417,4.516,6.565,7.983,1.1,17.016-2.311,24.578-18.014,40.176-46.636,70.584-84.764,92.8-26,15.125-54.041,24.789-83.5,32.981,5.987,10.136,13.6,9.506,20.64,9.926,33.454,2.153,66.436-2.363,98.944-9.243C665.67,382.293,736.518,264.6,762.619,149.217c2.836-12.5-.945-19.222-14.863-19.642Z"
                transform="translate(21.268 527.334)" fill="#0d6e3b" />
            <path id="Path_108" data-name="Path 108"
                d="M420.74,133.173c-37.865-6.407-75.784-5.094-116.59-4.044,18.276,114.227,60.133,210.44,166.01,266.215,53.464,28.15,146.946,39.231,169.424,21.8-37.6-13.865-75.521-26.207-106.507-55.039-24.211-20.587-41.279-44.325-52.15-72.633-3.361-8.718-9.453-17.909-2.678-26.522,7.248-9.243,18.854-6.722,28.412-4.726,65.018,13.445,118.428,44.483,153.3,103.093,4.044,6.775,6.617,16.753,18.434,15.125,1-2.1,2.941-4.2,2.626-5.882-10.031-53.149-26.732-103.356-64.7-144.005-52.991-56.72-121.474-80.931-195.63-93.483Z"
                transform="translate(-304.15 523.79)" fill="#0d6e3b" />
            <path id="Path_109" data-name="Path 109"
                d="M398.2,283.057C428.452,236,471.78,208.481,526.083,197.872c8.771-1.733,19.8-4.411,26.417,4.254,6.2,8.14-.473,16.7-3.834,24.368-20.9,47.476-60.448,74.1-105.981,94.06-9.348,4.1-20.85,3.886-29.673,12.6,42.225,8.718,100.415,2.1,139.173-16.543,90.489-43.538,130.088-122.945,150.622-215.535,2.573-11.5-2.836-15.966-13.97-15.755-18.066.368-36.29-.893-54.251.578-76.2,6.2-145.948,28.255-202.143,85.815-30.25,38.391-50.523,79.092-52.623,129.09,12.447-2.836,14.338-11.449,18.382-17.7Z"
                transform="translate(17.585 340.609)" fill="#0d6e3b" />
            <path id="Path_110" data-name="Path 110"
                d="M498.1,391.4c4.307,1.26,8.666,1.418,10.976-3.781-.525-1.313-.735-2.994-1.68-3.886-4.254-3.886-8.613-7.615-13.077-11.291C455.4,340.2,430.4,300.177,425.674,249.025c-.84-9.348-1.681-20.114,6.2-26.417,8.981-7.142,18.014.473,25.891,4.674,49.315,26,77.78,67.328,88.125,121.685,1.26,6.67-.367,14.653,7.931,19.117,1.628-1.418,3.833-2.416,4.569-4.1a77.109,77.109,0,0,0,4.044-12.342c9.716-38.181,7.667-76.256-4.779-113.177C529.5,154.965,462.7,111.9,386.338,81.176c-53.568-21.532-56.562-18.171-59.293,43.538-.577,20.692-1.26,39.231-.525,58.085,4.569,111.916,76.624,180.505,171.524,208.655Z"
                transform="translate(-210.402 272.493)" fill="#0d6e3b" />
            <path id="Path_111" data-name="Path 111"
                d="M389.961,206.179c41.279-48,87.968-79.88,157.712-71.53-27.2,65.228-80.72,85.184-138.543,100.52,32.089,10.976,64.492,11.186,96,5.462,96.634-17.7,146.211-86.077,178.877-171.262,4.516-11.712-2.311-14.81-12.867-16.333-40.386-5.935-80.615-5.619-122.735.893-99.627,15.7-158.71,95.688-158.447,152.3Z"
                transform="translate(60.698 185.986)" fill="#0d6e3b" />
            <path id="Path_112" data-name="Path 112"
                d="M465.22,79.415a433.215,433.215,0,0,0-76.152-48.579c-14.074-6.985-20.639-6.145-26.679,10.556-13.077,36.133-17.226,72.79-16.07,110.813,1.786,58.3,26.049,104.721,73.053,138.385,16.228,11.659,33.612,23.633,56.3,24.789-14.968-23.108-34.347-42.435-44.22-67.906-10.556-27.1-13.235-53.936,1.628-84.922,54.829,31.984,79.722,78.357,80.143,143.69,38.863-64.492,32.561-159.76-47.949-226.826Z"
                transform="translate(-125.638 92.016)" fill="#0d6e3b" />
            <path id="Path_113" data-name="Path 113"
                d="M397.044,208.563c7.878-3.886,6.933-12.132,9.348-18.591,11.292-30.2,29.778-54.461,58.505-69.9,7.458-3.991,16.7-9.348,24.158-2.573,6.933,6.355,4.412,16.123,1.891,24.579-8.613,28.622-25.366,51.678-49.525,71.32-7.248,6.092-17.436,7.72-17.489,19.012,2.783.788,4.989,2.206,6.775,1.786,113.7-26.154,151.41-110.131,141.169-212.436-1.733-17.016-10.346-20.009-25.1-16.176a293.447,293.447,0,0,0-79.513,34.032c-57.508,35.4-84.869,87.023-77.937,155.191.525,5.409.157,11.869,7.72,13.707Z"
                transform="translate(53.509 -4.098)" fill="#0d6e3b" />
        </g>
    </g>
</svg>
  